<?xml version="1.0" encoding="UTF-8"?>
<svg version="1.1" xmlns="http://www.w3.org/2000/svg" width="64" height="64">
<path d="M0 0 C3.75111172 2.19659696 6.93433291 4.93433291 10 8 C13.53217579 7.67889311 16.63449506 7.12183498 20 6 C24.29854094 5.51710682 27.80431248 5.27092224 31.5625 7.5625 C33.63952336 11.08440917 33.59037281 12.93298734 33 17 C31.74997685 19.64255708 30.39369394 22.15609616 28.8984375 24.66796875 C27.73801862 26.94247391 27.73801862 26.94247391 28.6875 29.05859375 C29.120625 29.69925781 29.55375 30.33992188 30 31 C30.63808594 31.95519531 30.63808594 31.95519531 31.2890625 32.9296875 C31.72992188 33.57164063 32.17078125 34.21359375 32.625 34.875 C34.84068494 38.41878096 35.84973625 40.75131877 35 45 C33.4375 47.8125 33.4375 47.8125 31 50 C27.65284211 50.93720421 25.04519164 51.24918476 21.640625 50.4375 C18.80389812 49.80320082 16.87584529 49.47552973 14 50 C11.154812 52.59439635 9.03699611 55.32280906 6.8125 58.4609375 C5 61 5 61 3 62 C-3.18502203 62.57268722 -3.18502203 62.57268722 -6.3125 60.375 C-9.65848458 55.66583652 -10.32259633 50.64503061 -11 45 C-12.35544922 44.52820312 -12.35544922 44.52820312 -13.73828125 44.046875 C-14.91777344 43.61890625 -16.09726562 43.1909375 -17.3125 42.75 C-18.48425781 42.33234375 -19.65601563 41.9146875 -20.86328125 41.484375 C-24.06563382 39.96894041 -25.31708895 39.06090442 -27 36 C-27.625 32.625 -27.625 32.625 -27 29 C-24.01605726 25.2942776 -20.4751949 23.18478325 -16.125 21.4375 C-12.72573886 19.34044917 -12.72573886 19.34044917 -12.4453125 16.0390625 C-12.31723705 13.75931949 -12.25504186 11.47471953 -12.265625 9.19140625 C-11.96901798 5.6277602 -11.12443246 3.8411706 -9 1 C-5.78509882 -0.60745059 -3.5698929 -0.40305242 0 0 Z M-4 6 C-6.20887131 9.53764545 -6.07653796 12.27065213 -6 16.375 C-6.34234672 22.36271121 -6.34234672 22.36271121 -9.14453125 25.078125 C-11.70991462 26.56552151 -14.29966526 27.78049399 -17 29 C-19.28803583 30.42130236 -19.28803583 30.42130236 -21 32 C-21 32.66 -21 33.32 -21 34 C-19.94039062 34.3403125 -18.88078125 34.680625 -17.7890625 35.03125 C-6.8603208 38.78672708 -6.8603208 38.78672708 -4.62890625 41.93359375 C-4.17417416 43.99799697 -4.05265856 45.88960694 -4 48 C-3.66228048 49.34326033 -3.28889016 50.67822176 -2.875 52 C-2.58625 52.99 -2.2975 53.98 -2 55 C-1.01 55 -0.02 55 1 55 C2.41221509 53.19517739 3.78017314 51.35557992 5.125 49.5 C7.43007477 46.61167556 9.45293178 44.37860591 13.12890625 43.47900391 C18.12222339 43.02593008 23.03133996 43.42935343 28 44 C28.495 43.01 28.495 43.01 29 42 C28.03553547 40.55435381 27.06212026 39.11366372 26.03857422 37.70922852 C20.85298894 30.48017983 20.85298894 30.48017983 21.28515625 26.12890625 C22.35468606 23.61033604 23.59040215 21.34229582 25 19 C25.6872487 17.00697876 26.36515933 15.01032877 27 13 C23.65089144 11.85584753 21.88568669 12.15038683 18.625 13.4375 C14.92050648 14.89704427 11.98902628 15.49165889 8 15 C5.04296875 13.03125 5.04296875 13.03125 2.1875 10.5 C-0.56899844 7.59982051 -0.56899844 7.59982051 -4 6 Z " fill="#00BCFF" transform="translate(28,1)"/>
</svg>
